inDegrees=no
num_controls=7
num_derivatives=13
num_iterations=135
num_multipliers=7
num_parameters=0
num_slacks=7
num_states=26
objective=0.469837
objective_accelerations=0.063234
objective_balance=0.002129
objective_effort=0.020102
objective_height=0.374891
objective_ligament=0.009482
solver_duration=1867.541359
status=Solve_Succeeded
success=true
DataType=double
version=3
OpenSimVersion=4.5
endheader
time	/jointset/ground_pelvis/pelvis_tilt/value	/jointset/ground_pelvis/pelvis_tx/value	/jointset/ground_pelvis/pelvis_ty/value	/jointset/hip_l/hip_flexion_l/value	/jointset/hip_l/hip_adduction_l/value	/jointset/hip_l/hip_rotation_l/value	/jointset/back/lumbar_extension/value	/jointset/patellofemoral_l/patellar_flexion_l/value	/jointset/knee_l/knee_flexion_l/value	/jointset/knee_l/knee_adduction_l/value	/jointset/knee_l/knee_rotation_l/value	/jointset/ankle_l/ankle_angle_l/value	/jointset/subtalar_l/subtalar_angle_l/value	/jointset/ground_pelvis/pelvis_tilt/speed	/jointset/ground_pelvis/pelvis_tx/speed	/jointset/ground_pelvis/pelvis_ty/speed	/jointset/hip_l/hip_flexion_l/speed	/jointset/hip_l/hip_adduction_l/speed	/jointset/hip_l/hip_rotation_l/speed	/jointset/back/lumbar_extension/speed	/jointset/patellofemoral_l/patellar_flexion_l/speed	/jointset/knee_l/knee_flexion_l/speed	/jointset/knee_l/knee_adduction_l/speed	/jointset/knee_l/knee_rotation_l/speed	/jointset/ankle_l/ankle_angle_l/speed	/jointset/subtalar_l/subtalar_angle_l/speed	/forceset/tau_hip_flexion_l	/forceset/tau_hip_adduction_l	/forceset/tau_hip_rotation_l	/forceset/tau_knee_flexion_l	/forceset/tau_ankle_angle_l	/forceset/tau_subtalar_angle_l	/forceset/tau_lumbar_extension	lambda_cid13_p0	lambda_cid13_p1	lambda_cid13_p2	lambda_cid13_p3	lambda_cid13_p4	lambda_cid13_p5	lambda_cid14_p0	/jointset/ground_pelvis/pelvis_tilt/accel	/jointset/ground_pelvis/pelvis_tx/accel	/jointset/ground_pelvis/pelvis_ty/accel	/jointset/hip_l/hip_flexion_l/accel	/jointset/hip_l/hip_adduction_l/accel	/jointset/hip_l/hip_rotation_l/accel	/jointset/back/lumbar_extension/accel	/jointset/patellofemoral_l/patellar_flexion_l/accel	/jointset/knee_l/knee_flexion_l/accel	/jointset/knee_l/knee_adduction_l/accel	/jointset/knee_l/knee_rotation_l/accel	/jointset/ankle_l/ankle_angle_l/accel	/jointset/subtalar_l/subtalar_angle_l/accel	gamma_cid13_p0	gamma_cid13_p1	gamma_cid13_p2	gamma_cid13_p3	gamma_cid13_p4	gamma_cid13_p5	gamma_cid14_p0
0.5	-0.4087831530055613	-0.06613428702423764	0.7763300507575916	1.180416922007225	-0.3516034920627702	-0.06588275705550652	-0.4080652726426505	0.7135415009005578	0.7135415009003424	-0.05065328780877251	-0.1744548613877111	0.04740967415407515	0.08382392792756543	-1.292720092097319	-0.4029008323702031	-0.5007804912564258	2.870662495955115	0.0413153965639035	0.4348043569549798	-0.2848223818659588	1.347513883433708	1.34751388343385	0.2079216473323073	0.001219592313390688	-0.1303008948914088	-0.001223965401631485	-0.1644004998490957	-0.007462408043902309	0.004873905921743959	-0.1465839864804672	0.09475141481662951	0.01849435264594451	0.1496903503768987	6.305062075493056	-8.245308436528351	0.01605576516657768	-8.176922007354394	-435.6599553340451	-75.01302717258444	-14.61843978996166	0.5179221682955836	0.6996993964632319	-0.3826943554923678	-1.71136437609945	0.09729349992575172	-0.319284484797619	1.603661971267441	-1.073887823176906	-1.073887823177003	-0.4787870402287008	0.1107577404688941	-0.01173112094652005	0.1006080647763452	1.320539247830423e-08	-1.334814581154282e-06	-7.101914812510024e-07	-2.946943371128457e-07	-2.110457332843586e-07	1.887978089771327e-07	-1.500341944968051e-07
0.51	-0.4216819551219132	-0.07012764177700928	0.7713044126825812	1.209032720483071	-0.3511860989115974	-0.06155579803471867	-0.4108342776410758	0.7269607107228291	0.7269607107228494	-0.048596636570347	-0.1744414411460803	0.04610624280508286	0.08381617157728426	-1.28688660161469	-0.3957112953139998	-0.5042259631720009	2.852100926529289	0.04216855255245994	0.4304231536138727	-0.2689693086761972	1.336121207033099	1.336121207033179	0.2034911505121668	0.00138621863509317	-0.1303551876668549	-0.0003108460647378522	-0.1708583477000611	-0.007122073388006613	0.004376395406315786	-0.1476223235284832	0.09759035513236777	0.01935929206064641	0.1542344208272999	7.0764406375372	-8.577284817186889	-0.1351700285101803	-8.906641972182683	-439.3602774816337	-75.34655323164074	-14.06917587901129	0.6391009760011446	0.7373431452675853	-0.3073348850535809	-1.988015825777983	0.08044417114714625	-0.5222722674182945	1.577526364302425	-1.20296136588337	-1.20296136589248	-0.4131014965093796	-0.04221884186875113	0.002195051058046064	0.08944014910486246	-1.082448581602182e-08	-1.098315840774346e-06	-3.926941467917902e-07	-2.414817467163637e-07	-2.352885244456452e-07	2.402366738899551e-07	-1.581835664808824e-07
0.52	-0.4345178146358905	-0.07404734870220514	0.7662479476333222	1.237451010744663	-0.3507599506959758	-0.05727759784907054	-0.4134444726333104	0.740259793017638	0.7402597930178551	-0.04658187439890422	-0.1744287214251705	0.04480316320971645	0.08381810167656385	-1.280131571621875	-0.3881712668550505	-0.5069458861061321	2.831160853105312	0.04306640945408004	0.4250525899267256	-0.2530603806275575	1.323488377937271	1.323488377937293	0.1995438339479216	0.001079488161206605	-0.1302305441662333	0.0007133245105155941	-0.1773161955510647	-0.006781738732113601	0.003878884890598127	-0.1486606605764988	0.1004292954481103	0.0202242314753517	0.1587784912776623	7.84665343459339	-8.908601528519664	-0.2870219310735027	-9.633756443865634	-443.0789833944791	-75.69225011750538	-13.52360621485195	0.7022300703328481	0.7697976770124342	-0.237584559203662	-2.187065175729394	0.1062336825384656	-0.5171565540056525	1.61483294304309	-1.321918362220705	-1.321918362220121	-0.3821509890496733	0.01608638135106151	0.02405613426699934	0.122818312448293	-8.510666317379306e-08	-6.185184288214749e-07	4.479174212242427e-07	-1.116801129114953e-07	-3.534440339966762e-07	3.766042952143436e-07	-2.021847682032058e-07
0.53	-0.4472813594339518	-0.07789009200706495	0.7611679078613695	1.26564800053298	-0.3503255386797951	-0.05305316299918023	-0.4158955209790409	0.7534263096246829	0.7534263096244602	-0.04460856478556659	-0.1744183157368466	0.04350179633404563	0.08382965342010554	-1.272410834340572	-0.3803386227449293	-0.5089408572178291	2.807854448509865	0.04380350800720203	0.4197652975553967	-0.2371575576945995	1.309619446482637	1.309619446482657	0.195117273739341	0.0009780668740178905	-0.1300321573630852	0.00158785537645918	-0.1841520915908192	-0.006376614568722666	0.003352354062684132	-0.1489092558352706	0.1019233366328138	0.02119515035975037	0.1634745403701638	8.183240771543751	-9.248714164288458	-0.393273784206602	-9.914465485492464	-446.79895201018	-75.9808380930039	-12.98193915897283	0.8319468962113018	0.7958047834964541	-0.1623548282664757	-2.459865966232268	0.05555704008763025	-0.5450727747978409	1.576766592048175	-1.448660024654446	-1.448660024655042	-0.4730939971578077	-0.02659855648108526	0.01931854772065507	0.06834827520996481	-1.311293158637475e-07	-2.88560460482605e-07	9.922366940276987e-07	-2.391739817872843e-08	-4.162753034289989e-07	4.68480755959264e-07	-2.266799891557984e-07
0.54	-0.4599627065913666	-0.08165334746972655	0.7560715380900769	1.293600438702379	-0.3498841338584082	-0.04888371251224091	-0.418187789170718	0.7664482810195662	0.7664482810191311	-0.04267955786598612	-0.174409592696137	0.0422027310452815	0.08384966603261521	-1.263692043491957	-0.3722736984154044	-0.5102118859740906	2.782250529323237	0.04446497049589397	0.4140557173399935	-0.2213043498165992	1.294579335525214	1.29457933552523	0.1906832951149212	0.0007429586777504639	-0.1297702267846601	0.002405498304103761	-0.1909879876306466	-0.005971490405432526	0.002825823236426773	-0.1491578510940706	0.1034173778174881	0.022166069244024	0.1681705894626065	8.519560507037237	-9.589487884775387	-0.4986113903434203	-10.20939124105625	-450.5307634493435	-76.31971538711032	-12.44447177195881	0.9018407837953888	0.8162537208931818	-0.09279608811656216	-2.646568093965555	0.09110646965254074	-0.6016141228204807	1.604909932051545	-1.556154262778459	-1.556154262778366	-0.3836346722175222	-0.01065100046470494	0.03676488932240442	0.1114407247884781	-1.458861114744148e-07	-1.243823020996533e-07	1.208743214681066e-06	1.733417204873428e-08	-4.178967752831755e-07	5.111329539354105e-07	-2.295941250014544e-07
0.55	-0.4725520490044776	-0.08533492131834827	0.7509660770323783	1.321285661036252	-0.3494366645627831	-0.04477157554427438	-0.4203219487511176	0.7793140124495539	0.7793140124493311	-0.04079632750959852	-0.1744025834128964	0.04090645144765469	0.08387732435360283	-1.254016185664024	-0.3640142740847463	-0.5107574822351985	2.754425154459872	0.04500749939542431	0.4083679373146937	-0.2055643846940344	1.278369430736467	1.278369430736281	0.1859058590665623	0.0006775226700293307	-0.1294875716415565	0.003103193777371093	-0.1977431299632555	-0.005658125052326558	0.002331688288290518	-0.1493751307662109	0.1047186764418328	0.02299093789341206	0.1727182680874663	8.78198695219603	-9.859968336600485	-0.6082174797406884	-10.35836643064435	-454.2408138505063	-76.54232125379065	-11.91157435228141	1.024464671426249	0.8348143397142354	-0.0170986518100981	-2.905879823369757	0.03249648029433475	-0.5531253355948876	1.553017037766055	-1.682990311805766	-1.68299031183601	-0.5333221681212935	-0.001428263129340529	0.02373618216169807	0.04533686816937166	-1.512848965244405e-07	-1.155061277440101e-08	1.327078437832046e-06	4.29131259889642e-08	-4.018441697171353e-07	5.353944618064213e-07	-2.266513952082746e-07
